<?xml version="1.0" standalone="no"?>
<!DOCTYPE svg PUBLIC "-//W3C//DTD SVG 20010904//EN"
 "http://www.w3.org/TR/2001/REC-SVG-20010904/DTD/svg10.dtd">
<svg version="1.0" xmlns="http://www.w3.org/2000/svg"
 width="600.000000pt" height="600.000000pt" viewBox="0 0 600.000000 600.000000"
 preserveAspectRatio="xMidYMid meet">

<g transform="translate(0.000000,600.000000) scale(0.100000,-0.100000)"
fill="#000000" stroke="none">
<path d="M457.085 379.172c3.40234 -3 4.56641 -7.67969 2.96484 -11.9219s-5.56641 -6.98438 -10.1055 -6.98438h-90.5352v-13.6992c1.09766 0.0429688 2.20703 -0.152344 3.24219 -0.59375c2.10938 -0.894531 3.69141 -2.70703 4.29688 -4.91406
c3.86328 -14.0469 0.78125 -28.8281 -7.53906 -40.1055v-130.909h45.3984c14.125 0 25.6172 -11.4922 25.6172 -25.6172v-193.418h19.5156c4.14453 0 7.50391 -3.35938 7.50391 -7.50391s-3.35938 -7.50391 -7.50391 -7.50391h-442.437
c-4.14453 0 -7.50391 3.35938 -7.50391 7.50391s3.35938 7.50391 7.50391 7.50391h18.0156v26.875c0 14.1289 11.4922 25.6172 25.6172 25.6172h61.2461c3.78516 0 7.375 -0.828125 10.6094 -2.30859v21.6602c0 14.125 11.4922 25.6172 25.6211 25.6172h24.1172
l33.1875 69.8203c0.96875 2.04297 0.523438 6 0.613281 8.09375l2.98828 54.8906c0.0234375 0.542969 0.121094 1.11328 0.269531 1.63281l11.418 40.3779c1.12891 3.98828 5.27344 6.3125 9.26562 5.17969c3.98828 -1.12891 6.30469 -5.27734 5.17969 -9.26562
l-7.22656 -25.5459l25.0771 10.2764l9.22266 3.78125l12.6172 38.1406c-3.44141 -1.67578 -7.66016 -0.488281 -9.6875 2.85156c-2.15234 3.54297 -1.02344 8.16016 2.51562 10.3125l16.6289 10.1016c0.0585938 0.0390625 0.121094 0.0742188 0.183594 0.109375
l53.4258 32.4609c9.10156 5.52734 14.6289 15.2305 15.1484 25.5l-82.1562 -44.6133c-0.449219 -0.269531 -0.890625 -0.542969 -1.36328 -0.785156l-1.42188 -0.726562l-11.5273 -6.26172c-6.42969 -3.49219 -8.44824 -9.70312 -11.7373 -21.3008l-1.61719 -5.71484
c-0.9375 -3.30859 -3.94531 -5.46484 -7.21875 -5.46484c-0.675781 0 -1.36328 0.0898438 -2.04297 0.285156c-3.98828 1.125 -6.30859 5.27344 -5.17969 9.26172l1.61719 5.72656c2.25 7.92969 4.4375 15.5625 9.04688 21.7695
c-3.52344 2.19531 -6.51953 5.32812 -8.54688 9.28516l-8.68359 16.957c-2.89062 5.63672 -3.41016 12.0625 -1.46484 18.0898c1.94531 6.03125 6.12109 10.9375 11.7617 13.8281l6.71484 3.4375c11.6318 5.95703 25.9521 1.34375 31.9131 -10.2969l8.68359 -16.9531
c1.28516 -2.50781 2.09766 -5.17188 2.4375 -7.88281l61.6289 33.4648v101.203c0 4.14453 3.35938 7.50391 7.50391 7.50391s7.50391 -3.35938 7.50391 -7.50391v-3.89062h90.5391c4.53516 0 8.5 -2.74219 10.1055 -6.98828
c1.59766 -4.24219 0.433594 -8.91797 -2.96875 -11.918l-21.8789 -19.2617zM235.547 319.086c-0.714844 -2.21094 -0.523438 -4.57031 0.535156 -6.64062l8.6875 -16.9531c2.1875 -4.27344 7.44434 -5.96875 11.7139 -3.78125l5.16016 2.64453l2.44531 1.32422
c3.60547 2.42578 4.91797 7.22656 2.89062 11.1875l-8.6875 16.957c-1.53906 3.00391 -4.59766 4.73438 -7.76172 4.73438c-1.33496 0 -2.68652 -0.308594 -3.95215 -0.957031l-6.71484 -3.4375c-2.07031 -1.05859 -3.60156 -2.86328 -4.31641 -5.07812zM220.469 46.1611
v13.1367l-8.23828 -10.9414c2.91406 -0.269531 5.6875 -1.03125 8.23828 -2.19531zM256.097 106.626l-7.41699 -9.85156h25.1475l-4.08203 41.4961c-0.0273438 0.292969 -0.207031 0.542969 -0.460938 0.65625c-0.367188 0.15625 -3.87109 2.33984 -3.87109 2.33984
s-3.70312 -20.2266 -3.90625 -21.1953c-0.804688 -4.07031 -1.80078 -9.12109 -5.41016 -13.4453zM300.472 148.044c0.40625 3.25 -1.09375 5.53125 -5.47656 11.2305c-0.492188 0.640625 -21.6719 25.8008 -21.6719 25.8008l-5.02734 -27.8633l7.54688 -4.78516
c4.93359 -2.38672 8.30078 -7.1875 8.83984 -12.6875l4.22266 -42.9297h5.23047zM219.418 111.728l-30.0703 -63.2578h4.17969l50.707 67.3516c1.86719 2.46484 2.46094 7.00391 3.14062 9.99609l5.21777 28.8945c0.0117188 0.09375 0.03125 0.191406 0.0507812 0.285156
l6.30859 34.9453l-34.7061 -14.2227l-2.72656 -50.0625c0.117188 -4.72266 -0.585938 -9.36719 -2.10156 -13.9297zM40.5273 -22.1123v-26.8789h82.4688v26.8789c0 5.84766 -4.76172 10.6055 -10.6133 10.6055h-61.2461c-5.85156 0 -10.6094 -4.75781 -10.6094 -10.6055z
M138 -22.1123h0.00390625v-26.8789h82.4648v71.8438c0 5.85156 -4.75781 10.6094 -10.6094 10.6094h-61.2461c-5.85156 0 -10.6133 -4.75781 -10.6133 -10.6094v-44.9648zM415.417 144.427c0 5.84766 -4.76172 10.6094 -10.6133 10.6094h-52.8242
c-0.0234375 0 -0.0507812 -0.00390625 -0.0742188 -0.00390625c-0.0273438 0 -0.0546875 0.00390625 -0.078125 0.00390625h-8.26562c-5.85156 0 -10.6133 -4.75781 -10.6133 -10.6094v-110.883c0 -4.14453 -3.35547 -7.50391 -7.50391 -7.50391
c-4.14453 0 -7.50391 3.35938 -7.50391 7.50391v37.6172c0 5.84766 -4.75781 10.6055 -10.6094 10.6055h-61.2451c-5.85156 0 -10.6094 -4.75781 -10.6094 -10.6055v-120.152h82.4639v44.9922c0 4.14453 3.35938 7.50391 7.50781 7.50391
c4.14453 0 7.50391 -3.35938 7.50391 -7.50391v-44.9922h82.4648v193.418zM343.562 170.044h0.839844v117.718l-49.2891 -29.9453l-17.8945 -54.1016s29.168 -34.6318 29.6719 -35.2881c4.75781 -6.1875 9.67969 -12.582 8.47656 -22.2305l-6.12109 -49.5
c3.08203 -0.226562 6.01172 -1.00391 8.69922 -2.23047v49.9609c0 14.125 11.4922 25.6172 25.6172 25.6172zM359.409 375.277v-0.00390625h79.3867l-17.0977 15.0547c-2.32812 2.05078 -3.66406 5.00391 -3.66406 8.10547s1.33594 6.05469 3.66406 8.10547l17.0977 15.0547
h-79.3867v-46.3164zM359.409 375.277z"/>
<path d="M2853 5243 c-50 -10 -70 -86 -33 -123 14 -14 33 -20 65 -20 l45 0 0
-290 0 -291 25 -24 c13 -14 36 -25 50 -25 14 0 37 11 50 25 l25 24 0 336 c0
200 -4 344 -10 355 -5 10 -24 23 -41 29 -31 11 -130 13 -176 4z"/>
<path d="M1457 5293 c-29 -33 -31 -68 -5 -96 26 -30 236 -117 280 -117 15 0
37 9 48 20 25 25 26 81 3 103 -27 24 -243 107 -279 107 -17 0 -38 -8 -47 -17z"/>
<path d="M4315 5264 c-123 -49 -161 -80 -150 -123 10 -38 34 -61 66 -61 40 0
261 87 282 111 40 48 7 120 -55 118 -18 0 -82 -21 -143 -45z"/>
<path d="M1532 4823 c-7 -3 -19 -18 -28 -35 -13 -25 -13 -35 -3 -59 16 -41 36
-49 119 -49 62 0 74 3 95 25 14 13 25 36 25 50 0 14 -11 37 -25 50 -21 22 -32
25 -97 24 -40 0 -79 -3 -86 -6z"/>
<path d="M4256 4809 c-34 -27 -36 -79 -4 -109 18 -16 35 -20 98 -20 67 0 79 3
98 23 31 33 29 80 -4 106 -21 17 -41 21 -94 21 -53 0 -73 -4 -94 -21z"/>
<path d="M1583 4381 c-126 -52 -146 -67 -146 -110 0 -41 28 -71 67 -71 36 0
252 83 279 107 23 22 22 78 -3 103 -30 30 -71 24 -197 -29z"/>
<path d="M4197 4419 c-47 -28 -40 -105 11 -129 96 -44 228 -90 257 -90 58 0
87 73 48 118 -20 22 -241 112 -276 112 -12 0 -30 -5 -40 -11z"/>
</g>
</svg>
